<?xml version="1.0" standalone="no"?>
<!DOCTYPE svg PUBLIC "-//W3C//DTD SVG 20010904//EN"
 "http://www.w3.org/TR/2001/REC-SVG-20010904/DTD/svg10.dtd">
<svg version="1.0" xmlns="http://www.w3.org/2000/svg"
 width="920.000000pt" height="926.000000pt" viewBox="0 0 920.000000 926.000000"
 preserveAspectRatio="xMidYMid meet">

<g transform="translate(0.000000,926.000000) scale(0.100000,-0.100000)"
fill="#000000" stroke="none">
<path d="M150 9213 c-65 -6 -80 -13 -95 -43 -13 -26 -15 -526 -15 -4547 1
-3536 3 -4521 13 -4534 7 -9 21 -21 32 -26 14 -8 1339 -12 4527 -15 4496 -3
4507 -3 4527 17 11 11 21 34 22 50 1 17 1 2057 1 4533 l-2 4504 -34 34 -34 34
-4453 -2 c-2450 0 -4470 -3 -4489 -5z m8498 -497 c18 -11 18 -8151 0 -8163 -7
-4 -1833 -6 -4058 -5 l-4045 3 0 4082 0 4082 765 5 c1196 8 7324 5 7338 -4z"/>
<path d="M1805 6656 l-25 -25 0 -2001 0 -2000 21 -21 c20 -20 23 -20 622 -15
753 6 813 12 1077 109 370 135 672 345 896 623 79 99 193 274 246 379 68 137
158 379 158 427 0 13 4 28 8 34 11 11 29 118 42 244 17 171 9 415 -19 550 -5
25 -15 74 -22 110 -30 165 -161 484 -265 645 -98 153 -351 431 -490 537 -210
161 -553 315 -841 378 -166 36 -280 43 -841 47 l-542 4 -25 -25z m1135 -497
c41 -5 96 -12 123 -16 26 -3 50 -10 53 -14 3 -5 15 -9 28 -9 29 0 178 -51 258
-88 273 -127 343 -175 515 -349 50 -51 114 -127 142 -170 102 -155 212 -412
228 -533 3 -25 9 -49 13 -55 24 -31 39 -418 20 -530 -36 -212 -99 -385 -207
-567 -95 -160 -272 -355 -403 -445 -108 -73 -271 -155 -375 -187 -49 -16 -99
-32 -110 -37 -11 -4 -33 -10 -50 -13 -16 -2 -80 -13 -140 -24 -146 -26 -357
-36 -565 -27 l-170 7 0 1534 0 1534 283 0 c155 -1 316 -5 357 -11z"/>
<path d="M4700 6662 c-21 -17 -22 -22 -11 -52 6 -19 51 -98 99 -178 48 -79 94
-156 103 -170 9 -15 49 -81 89 -147 40 -66 117 -196 172 -289 55 -93 108 -182
119 -197 10 -15 19 -30 19 -34 0 -4 8 -19 18 -33 11 -15 37 -61 59 -102 62
-115 123 -220 302 -518 50 -83 91 -154 91 -157 0 -3 20 -36 45 -75 25 -39 45
-72 45 -75 0 -3 21 -37 48 -77 l47 -73 5 -931 c4 -769 7 -934 19 -947 12 -15
41 -17 236 -17 202 0 223 2 238 18 16 17 17 96 17 931 l0 913 42 76 c23 43 98
176 166 297 69 121 138 245 155 275 16 30 33 60 37 65 4 6 19 30 32 55 56 100
187 328 217 380 34 56 64 110 146 265 26 50 74 135 105 190 31 55 76 136 100
180 23 44 48 87 54 95 7 8 27 44 46 80 18 36 53 94 77 129 48 71 52 92 23 121
-19 19 -33 20 -278 20 -296 0 -271 7 -329 -100 -62 -115 -110 -201 -213 -385
-59 -104 -118 -210 -132 -235 -14 -25 -42 -74 -63 -110 -20 -36 -82 -148 -137
-250 -56 -101 -110 -200 -122 -220 -12 -19 -46 -82 -75 -140 -63 -124 -90
-170 -100 -170 -10 0 -81 104 -116 170 -16 30 -71 127 -123 215 -52 88 -142
243 -200 345 -58 102 -131 228 -162 280 -78 129 -134 229 -188 330 -25 47 -53
97 -64 112 -10 14 -18 30 -19 35 0 4 -17 33 -37 63 l-38 55 -270 3 c-252 2
-273 1 -294 -16z"/>
</g>
</svg>
